<svg width="29" height="29" viewBox="0 0 29 29" fill="none" xmlns="http://www.w3.org/2000/svg">
<path d="M18.2368 14.0549C17.2778 15.0822 16.0448 15.5617 14.5378 15.5617C13.0308 15.5617 11.7978 15.0822 10.7703 14.0549C9.81125 13.0275 9.33175 11.7946 9.33175 10.2192C9.33175 8.71239 9.81125 7.41101 10.7703 6.45211C11.7293 5.42471 12.9623 4.94526 14.5378 4.94526C16.1133 4.94526 17.2778 5.49321 18.2368 6.5206C19.1958 7.548 19.6753 8.84937 19.6753 10.3562C19.6068 11.7946 19.1958 13.0275 18.2368 14.0549ZM9.33175 22.959C9.33175 21.4521 9.81125 20.1507 10.7703 19.1918C11.7293 18.1644 12.9623 17.685 14.5378 17.685C16.0448 17.685 17.2778 18.2329 18.2368 19.2603C19.1958 20.2877 19.6753 21.5891 19.6753 23.096L9.33175 22.959ZM14.4693 0.972656C7.00275 0.972656 0.90625 7.06855 0.90625 14.5343C0.90625 22.0001 7.00275 28.0959 14.4693 28.0959C21.9358 28.0959 28.0323 22.0001 28.0323 14.5343C28.0323 7.00006 21.9358 0.972656 14.4693 0.972656Z" fill="white"/>
</svg>
